<svg id="verification" xmlns="http://www.w3.org/2000/svg" xmlns:xlink="http://www.w3.org/1999/xlink" viewBox="0, 0, 400,554.8387096774194" version="1.1"><g id="svgg"><path id="path0" d="M0.088 222.581 L 0.176 445.161 42.024 472.359 C 194.642 571.548,193.009 571.364,310.652 502.657 L 400.000 450.475 400.000 225.237 L 400.000 0.000 200.000 0.000 L 0.000 0.000 0.088 222.581 M348.387 231.151 L 348.387 410.690 283.677 450.506 C 204.472 499.242,208.967 499.245,122.385 450.381 L 51.613 410.440 51.613 231.026 L 51.613 51.613 200.000 51.613 L 348.387 51.613 348.387 231.151 M217.915 239.647 C 175.475 282.153,168.815 284.771,143.328 268.967 C 99.323 241.680,84.123 278.243,120.347 324.249 C 160.083 374.717,181.807 370.067,250.776 296.334 C 338.694 202.343,308.011 149.412,217.915 239.647 " stroke="none" fill="currentColor" fill-rule="evenodd"></path></g></svg>